<svg width="65" height="65" viewBox="0 0 65 65" fill="none" xmlns="http://www.w3.org/2000/svg">
<circle cx="32.5" cy="32.5" r="32.5" fill="#C4BFB2"/>
<circle cx="32.5" cy="32.5" r="22.5" fill="#45433E"/>
<path d="M32.3658 33.272V45.632C32.3658 47.008 31.9418 48.112 31.0938 48.944C30.2458 49.76 29.1258 50.168 27.7338 50.168C26.3258 50.168 25.1978 49.752 24.3498 48.92C23.5018 48.072 23.0778 46.92 23.0778 45.464H25.2617C25.2778 46.28 25.4858 46.944 25.8858 47.456C26.3018 47.968 26.9178 48.224 27.7338 48.224C28.5498 48.224 29.1578 47.984 29.5578 47.504C29.9578 47.008 30.1578 46.384 30.1578 45.632V33.272H32.3658ZM41.9723 50.168C40.8683 50.168 39.8763 49.976 38.9963 49.592C38.1323 49.192 37.4523 48.648 36.9563 47.96C36.4603 47.256 36.2043 46.448 36.1883 45.536H38.5163C38.5963 46.32 38.9163 46.984 39.4763 47.528C40.0523 48.056 40.8843 48.32 41.9723 48.32C43.0123 48.32 43.8283 48.064 44.4203 47.552C45.0283 47.024 45.3323 46.352 45.3323 45.536C45.3323 44.896 45.1563 44.376 44.8043 43.976C44.4523 43.576 44.0123 43.272 43.4843 43.064C42.9563 42.856 42.2443 42.632 41.3483 42.392C40.2443 42.104 39.3563 41.816 38.6843 41.528C38.0283 41.24 37.4603 40.792 36.9803 40.184C36.5163 39.56 36.2843 38.728 36.2843 37.688C36.2843 36.776 36.5163 35.968 36.9803 35.264C37.4443 34.56 38.0923 34.016 38.9243 33.632C39.7723 33.248 40.7403 33.056 41.8283 33.056C43.3963 33.056 44.6763 33.448 45.6683 34.232C46.6763 35.016 47.2443 36.056 47.3723 37.352H44.9723C44.8923 36.712 44.5563 36.152 43.9643 35.672C43.3723 35.176 42.5883 34.928 41.6123 34.928C40.7003 34.928 39.9563 35.168 39.3803 35.648C38.8043 36.112 38.5163 36.768 38.5163 37.616C38.5163 38.224 38.6843 38.72 39.0203 39.104C39.3723 39.488 39.7963 39.784 40.2923 39.992C40.8043 40.184 41.5163 40.408 42.4283 40.664C43.5323 40.968 44.4203 41.272 45.0923 41.576C45.7643 41.864 46.3403 42.32 46.8203 42.944C47.3003 43.552 47.5403 44.384 47.5403 45.44C47.5403 46.256 47.3243 47.024 46.8923 47.744C46.4603 48.464 45.8203 49.048 44.9723 49.496C44.1243 49.944 43.1243 50.168 41.9723 50.168Z" fill="#C4BFB2"/>
</svg>
